<svg width="3000" height="1251" viewBox="0 0 3000 1251" fill="none" xmlns="http://www.w3.org/2000/svg">
<path d="M2270.12 295.017C2270.06 294.653 2269.97 294.252 2269.46 293.886C2266.25 291.187 2253.84 297.096 2247.94 298.155C2228.11 301.693 2213.85 285.606 2208.52 272.51C2204.72 263.208 2203.92 251.096 2201.89 236.723C2201.15 230.96 2200.74 222.314 2200.17 214.507C2199.45 204.657 2200 188.753 2189.66 186.419C2173.95 183.464 2176.38 211.991 2174.67 229.573C2172.37 254.853 2164.45 276.377 2144.25 284.986C2133.76 289.472 2122.06 289.983 2113.79 282.942C2099.33 270.613 2100 246.499 2100 218.957C2099.91 206.264 2099.77 193.531 2099.66 180.836C2099.66 170.112 2097.47 148.772 2101.56 141.987C2106.89 133.122 2124.52 138.302 2133.91 133.815C2136.65 132.502 2140.3 129.839 2139.26 124.695C2136.32 110.286 2112.27 120.756 2103.08 113.168C2091.9 103.902 2106.36 66.8394 2091.18 60.1636C2086.32 58.0113 2081.65 61.2215 2079.66 64.067C2074.9 70.8886 2076.23 85.4437 2076.23 97.336C2076.23 102.078 2076.32 106.638 2075 109.994C2073.99 112.584 2071.73 114.883 2069.32 115.941C2065.4 117.691 2061.08 117.363 2055.54 117.436C2047.65 117.691 2039.7 117.947 2031.8 118.166C2026.73 118.166 2020.95 119.041 2016.45 117.801C1996.6 112.329 2019.74 59.6893 1995.11 59.58C1989.74 60.346 1987.84 62.8265 1986.15 67.9338C1982.2 80.0084 1987.87 100.291 1983.38 112.001C1978.79 123.966 1958.97 115.503 1951.69 127.249C1950.71 128.818 1949.44 131.408 1949.98 134.508C1952.98 151.471 1975.89 140.345 1982.17 151.252C1986.12 158.147 1984.76 178.394 1984.53 189.265C1983.75 223.372 1983.46 246.792 1971.66 267.658C1969.12 272.182 1966.43 276.887 1962.72 280.134C1959.64 282.796 1956.29 285.496 1952.38 287.211C1947.68 289.254 1940.45 289.91 1935.32 287.94C1916.3 280.717 1915.93 244.458 1914.75 218.082C1914.03 204.513 1916.53 188.498 1904.47 186.382C1890.79 183.974 1889.6 208.124 1887.24 219.651C1882 245.406 1868.02 283.27 1844.11 288.669C1829.37 291.989 1820.92 280.644 1818.29 269.19C1816.97 263.536 1816.8 257.772 1816.57 249.564C1817.08 237.782 1818.9 222.643 1819.37 213.303C1820.6 193.788 1817 183.719 1806.1 185.98C1796.71 187.915 1796.09 199.187 1793.7 210.932C1787.68 243.436 1789.95 293.12 1808.06 308.734C1811.67 311.834 1815.7 314.716 1820.46 316.54C1840.97 324.347 1862.14 311.579 1873.59 302.204C1879.26 297.57 1887.1 290.13 1897.88 293.084C1913.22 297.315 1918.09 313.623 1934.74 317.269C1943.33 319.166 1950.56 315.008 1955.58 311.688C1964.77 305.633 1971.8 298.374 1984.5 296.076C1991.36 294.835 1997.38 298.374 2001.39 300.744C2011.09 306.4 2018.82 314.168 2031.35 316.54C2038.38 317.854 2044.51 314.57 2048.42 312.089C2057.74 306.18 2064.97 297.643 2077.33 295.345C2083.75 294.179 2089.13 297.497 2092.68 299.795C2101.29 305.451 2107.46 313.512 2118.69 316.358C2138.78 321.464 2158.65 301.985 2171.73 295.892C2177.44 293.23 2185.33 293.157 2190.51 296.44C2195.67 299.76 2199.8 304.465 2204.63 308.15C2213.51 314.899 2229.73 319.86 2244.76 315.775C2249.35 314.534 2253.58 312.674 2257.16 310.376C2260.7 308.224 2271.04 300.343 2270.12 295.017ZM2076.05 167.267C2075.98 174.271 2076.09 181.239 2076.05 188.243C2076.05 193.531 2076.05 197.545 2076.02 203.199C2075.82 215.382 2075.45 232.638 2072.6 245.041C2069.87 257.08 2064.77 265.797 2058.65 274.042C2053.85 280.535 2045.24 289.217 2033.51 286.116C2002.44 277.909 2006.46 233.842 2006.46 192.401C2006.46 180.874 2005.79 154.353 2010.08 148.152C2015.88 139.761 2042.17 140.783 2052.64 139.944C2055.44 139.761 2058.92 139.98 2061.73 139.798C2078.08 139.652 2076.05 150.924 2076.05 167.267ZM2185.97 108.681C2179.11 109.739 2175.71 113.095 2173.69 120.391C2170.95 130.97 2180.03 142.643 2190.14 140.71C2208.15 137.281 2207.43 107.66 2185.97 108.681ZM1761.6 209.108C1764.04 198.857 1766.17 179.889 1765.49 164.969C1764.57 150.413 1763.02 138.886 1761.1 130.642C1757.45 114.919 1752.89 100.327 1746.13 87.8515C1717.69 35.6131 1668.54 4.93394 1589.25 6.02832C1584.51 6.13776 1582.6 6.21074 1577.73 6.75793C1569.41 7.70639 1563.51 8.72781 1556.38 9.74923C1532.46 14.3091 1505.47 19.3433 1483.55 28.536C1476.08 31.6732 1468.61 34.1174 1462.02 38.0207C1459.86 39.2975 1455.81 41.5957 1456.52 45.6449C1457.67 52.3205 1467.46 49.3657 1472.19 48.0525C1485.57 44.3681 1504.42 36.7074 1505.1 55.8591C1506.25 89.6389 1507.39 123.419 1508.54 157.199C1508.78 167.303 1509.02 177.408 1509.22 187.514C1509.45 200.754 1509.69 214.033 1509.89 227.312C1509.89 231.288 1509.89 235.265 1509.89 239.203C1510.13 254.744 1509.08 276.814 1519.52 281.593C1525.43 284.292 1528.95 278.529 1530.53 274.516C1534.22 265.287 1534.99 257.115 1535.91 241.648C1536.01 238.11 1536.11 234.352 1536.21 230.814C1536.45 219.36 1536.68 207.869 1536.89 196.414C1537.22 172.666 1537.56 148.918 1537.93 125.206C1538.04 113.314 1538.17 101.385 1538.27 89.4929C1538.27 86.3923 1538.27 83.2914 1538.27 80.1908C1538.34 72.9314 1538.24 65.5991 1538.27 58.3396C1538.27 53.5244 1538.07 48.4537 1538.95 44.2951C1539.79 40.3188 1541.65 37.2182 1544.45 35.3576C1551.24 30.9072 1579.35 29.3387 1593.3 30.8343C1603.37 32.1111 1610.7 33.6067 1619.05 35.9048C1649.1 44.1857 1674.85 59.3976 1691.54 82.1972C1700.7 94.7095 1708.64 108.9 1713.57 125.899C1716.37 135.493 1718.47 143.738 1719.48 154.025C1722.31 180.874 1718.06 211.37 1712.05 228.188C1692.83 281.666 1656.04 306.763 1599.58 320.042C1589.66 322.413 1579.01 323.071 1571.86 323.581C1567.77 323.69 1563.71 323.836 1559.62 323.946C1555.26 323.946 1550.91 323.946 1546.55 323.946C1541.28 323.69 1536.55 323.727 1530.7 323.18C1518.2 322.194 1497.87 319.35 1485.74 317.379C1480.88 316.686 1472.5 314.57 1470.27 316.285C1469.93 316.577 1469.59 317.014 1469.76 317.781C1470.2 320.772 1478.07 323.543 1482.36 325.332C1494.22 330.329 1507.02 332.92 1520.74 336.165C1591.25 351.779 1662.59 330.403 1702.42 300.088C1730.72 278.638 1751.74 250.841 1761.6 209.108ZM1350.61 254.854C1359.66 223.008 1339.67 198.092 1320.14 189.775C1305.48 183.5 1280.55 183.099 1265.89 189.593C1263.01 190.869 1253.01 195.648 1255.38 200.391C1256.53 202.833 1261.02 202.177 1263.66 201.521C1270.92 199.697 1280.85 197.326 1290.01 199.114C1311.39 203.272 1330.38 219.542 1322.03 248.944C1320.78 253.358 1318.86 257.699 1316.69 261.2C1307.94 275.391 1280.62 292.209 1256.43 284.438C1241.87 279.769 1230.52 269.555 1226.12 253.942C1222.85 242.377 1223.02 223.19 1224.91 209.874C1226.36 201.776 1224.16 195.794 1218.35 197.217C1210.69 199.114 1206.94 222.35 1203.9 230.704C1196.19 251.79 1185.05 274.188 1161.87 278.31C1151.26 280.207 1145.82 268.753 1143.09 261.566C1136.9 245.333 1134.88 224.759 1130.86 206.153C1128.76 196.487 1128.05 186.091 1118.97 184.01C1111.81 182.37 1106.33 187.549 1103.46 191.452C1095.25 202.652 1090.56 217.827 1082.62 229.391C1079.61 233.769 1074.34 240.737 1066.1 239.059C1051.74 236.14 1049.04 214.507 1044.24 201.12C1042.25 195.539 1038.84 183.682 1030.8 185.324C1016.67 188.206 1011.98 219.287 1005.83 232.383C1003.13 238.11 997.621 247.266 988.431 243.181C971.912 235.775 981.372 191.16 963.13 186.455C952.082 183.609 945.326 198.31 941.61 206.373C934.651 222.168 927.421 240.883 918.199 255.839C914.212 262.259 909.314 269.482 900.97 271.087C891.14 272.947 887.119 262.696 884.62 256.204C879.349 242.561 877.289 226.218 874.451 209.728C872.728 199.624 873.437 189.883 866.715 185.36C856.918 178.795 849.588 190.942 844.317 195.393C833 204.987 820.501 212.538 807.63 220.672C803.913 223.044 796.549 228.771 790.232 227.567C782.9 226.144 778.915 220.198 774.05 216.04C764.827 208.161 756.314 199.515 747.869 190.759C743.139 185.834 737.294 176.204 729.627 176.643C727.397 177.006 726.147 177.518 724.626 178.502C718.85 182.332 716.384 191.27 712.736 197.472C707.026 207.212 688.919 228.334 677.263 230.595C669.596 232.053 663.65 223.518 660.204 219.797C648.819 207.503 639.09 195.648 623.855 187.257C618.313 184.194 607.2 178.795 599.733 183.719C593.755 187.658 593.755 206.337 591.119 214.398C583.856 236.796 572.404 261.238 556.864 274.662C551.223 279.514 542.98 287.539 531.561 284.511C511.901 279.294 507.609 253.614 502.812 230.595C500.55 219.25 499.705 199.952 491.428 197.873C484.638 196.158 483.32 203.637 482.475 208.853C481.496 214.945 481.833 219.906 481.968 228.917C481.867 232.711 481.732 236.468 481.631 240.262C481.091 249.637 480.213 254.635 477.848 260.544C470.855 278.055 446.194 296.805 420.047 292.501C414.101 291.515 409.574 290.604 404.81 288.634C390.351 282.541 381.94 270.649 379.135 251.825C378.258 245.843 379.745 239.642 381.027 235.666C387.515 215.566 406.06 207.614 425.958 207.029C433.424 205.752 455.788 209.4 458.321 203.855C460.213 198.822 451.531 194.735 448.863 193.241C437.546 187.039 417.682 182.953 401.33 187.111C379.001 192.766 360.961 206.628 352.583 227.275C341.875 253.76 357.043 285.387 371.197 297.57C388.967 312.856 418.019 321.101 447.647 311.506C462.477 306.69 473.659 297.9 489.502 294.944C493.556 294.179 497.948 295.345 500.685 296.258C515.211 301.001 528.792 319.933 548.723 313.366C555.176 311.251 560.952 307.712 565.951 303.882C579.059 293.851 589.937 279.332 596.795 262.587C601.052 252.118 604.565 238.948 610.071 229.5C613.314 223.883 620.442 220.344 627.469 224.649C630.407 226.473 633.178 228.698 635.576 231.142C637.84 233.441 640.407 235.739 641.793 238.948C643.584 243.144 642.536 247.922 640.407 250.841C638.111 254.015 634.124 256.058 631.118 258.465C625.475 262.916 619.834 268.423 615.611 274.443C605.849 288.452 607.639 301.839 620.949 310.338C641.657 323.543 691.149 325.879 697.398 297.681C699.729 287.211 695.033 276.705 692.23 269.773C690.81 266.309 687.703 261.457 689.121 255.839C690.642 249.892 695.776 246.865 699.797 243.582C708.343 235.885 716.891 228.223 725.471 220.526C729.255 217.352 734.085 216.696 738.748 218.666C742.632 220.307 745.539 223.19 748.578 225.743C752.058 228.662 760.739 235.411 759.253 243.035C758.273 248.106 754.153 250.659 750.808 253.248C741.721 260.253 717.026 281.776 730.674 298.629C733.174 301.73 736.62 304.319 739.964 306.435C746.147 310.338 753.781 312.892 761.652 314.789C785.705 320.589 812.493 313.767 817.292 293.412C821.954 273.605 798.543 258.319 816.446 245.624C819.554 243.91 822.628 242.159 825.737 240.408C829.689 238.511 834.824 234.753 841.412 236.14C852.931 238.511 853.912 252.3 857.762 262.916C863.809 279.514 874.113 307.931 889.789 313.111C897.963 315.81 904.822 310.485 909.077 306.983C921.442 296.768 929.82 281.156 939.042 267.548C942.185 262.951 948.737 251.79 956.947 253.432C970.528 256.131 971.676 285.606 975.729 299.54C977.419 305.341 979.344 312.089 984.852 313.658C992.452 315.848 997.722 303.554 999.817 298.41C1005.86 283.563 1013.73 250.367 1027.89 246.136C1034.34 244.201 1038.94 248.616 1041.33 252.446C1048.7 264.338 1046.61 287.685 1051.33 302.094C1053.09 307.493 1056.94 315.957 1064.95 314.168C1074 312.162 1076.23 298.337 1078.9 289.254C1083.46 273.605 1088.36 254.708 1103.02 250.001C1113.73 246.572 1117.68 257.262 1120.25 264.301C1126.5 281.63 1129.2 306.034 1144.88 313.038C1152.65 316.504 1162.78 313.403 1168.46 310.23C1182.24 302.641 1189.77 288.889 1207.54 285.679C1212.54 284.766 1217.14 287.211 1220.11 288.853C1228.76 293.594 1235.55 300.526 1243.86 305.779C1267.34 320.589 1299.3 313.804 1318.42 300.015C1332.74 289.728 1345.04 274.48 1350.61 254.854ZM660.576 301.511C649.259 304.939 631.015 297.754 634.057 284.95C636.353 275.245 648.278 269.445 653.346 269.336C669.392 269.445 677.263 296.477 660.576 301.511ZM788.88 290.567C786.853 295.345 781.787 297.863 776.314 298.92C765.132 301.145 748.68 292.464 753.41 279.952C756.516 271.67 767.97 266.783 772.024 266.564C775.029 265.907 776.956 266.528 778.745 267.293C784.726 269.957 792.968 280.863 788.88 290.567ZM868.269 108.681C861.411 109.739 857.998 113.095 855.972 120.391C853.236 130.97 862.323 142.643 872.423 140.71C890.464 137.281 889.72 107.66 868.269 108.681ZM316.773 304.939C316.301 296.513 315.862 288.086 315.39 279.66C315.085 273.275 314.814 266.892 314.511 260.508C310.829 195.32 307.18 143.665 303.497 78.4762C300.052 39.1515 296.978 23.2465 291.876 16.6438C286.742 9.38443 279.107 8.61837 261.236 9.74923C255.831 10.1505 250.594 10.5153 246.947 13.6525C240.021 19.1974 231.71 49.5117 227.25 61.9147C213.063 104.376 199.111 146.948 184.955 189.409C179.01 205.898 174.179 222.789 168.064 238.875C165.26 246.244 162.491 255.109 154.45 256.714C147.424 258.1 144.316 251.315 142.559 246.683C139.485 231.725 136.951 215.675 133.776 197.581C127.391 156.104 121.04 114.627 114.655 73.1867C112.425 58.5951 108.27 30.6519 102.764 25.5812C98.2705 20.0364 77.8323 17.7747 67.1232 21.3132C51.6848 26.4203 51.2456 55.6037 45.9417 76.7253C35.841 131.152 3.98429 299.212 0.63984 314.899C-0.880361 322.377 0.302017 330.731 4.25453 334.051C9.25431 338.209 18.308 337.37 22.8686 333.503C29.321 328.177 31.3479 309.682 33.814 296.622C42.0907 251.06 51.3132 191.16 58.475 146.255C61.7181 130.423 62.9005 108.353 74.8931 109.265C86.9872 109.921 87.4939 132.575 92.6289 159.679C93.5071 165.552 103.777 222.643 109.317 254.161C112.729 272.473 114.756 288.525 120.601 301.584C126.276 313.476 140.937 322.304 155.802 315.702C172.152 308.441 177.118 284.693 183.706 266.783C199.246 223.153 214.819 179.487 230.359 135.858C235.628 120.719 240.932 105.617 246.203 90.4779C248.128 85.5168 251.135 78.2209 258.433 78.4033C271.877 77.1265 273.195 107.04 275.56 144.686C277.384 200.646 279.242 243.035 281.066 298.993C281.979 324.347 279.073 347.766 300.355 348.095C302.754 348.131 304.679 347.985 306.572 347.364C319.274 343.024 317.821 324.492 316.773 304.939Z" fill="black"/>
</svg>
